<svg width="20" height="20" viewBox="0 0 20 20" fill="none" xmlns="http://www.w3.org/2000/svg">
<path d="M14.489 9.409C14.438 9.28886 14.3607 9.18171 14.2627 9.09551C14.1648 9.0093 14.0487 8.94624 13.923 8.911C13.6718 8.84238 13.409 8.82784 13.1518 8.86835C12.8946 8.90886 12.6489 9.0035 12.431 9.146C12.2138 9.36542 12.0735 9.64923 12.031 9.955C12.031 10.062 12.031 10.082 12.158 10.082H14.528C14.645 10.082 14.645 10.082 14.635 9.935C14.6238 9.75124 14.5747 9.57195 14.489 9.409ZM14.489 9.409C14.438 9.28886 14.3597 9.18171 14.2617 9.09551C14.1638 9.0093 14.0487 8.94624 13.923 8.911C13.6718 8.84238 13.409 8.82784 13.1518 8.86835C12.8946 8.90886 12.6489 9.0035 12.431 9.146C12.2138 9.36542 12.0725 9.64923 12.03 9.955C12.03 10.062 12.03 10.082 12.157 10.082H14.528C14.645 10.082 14.645 10.082 14.635 9.935C14.6238 9.75124 14.5727 9.57195 14.487 9.409M15.6 0H3.9C2.86566 0 1.87368 0.410892 1.14228 1.14228C0.410892 1.87368 0 2.86566 0 3.9V15.6C0 16.6343 0.410892 17.6263 1.14228 18.3577C1.87368 19.0891 2.86566 19.5 3.9 19.5H15.6C16.6343 19.5 17.6263 19.0891 18.3577 18.3577C19.0891 17.6263 19.5 16.6343 19.5 15.6V3.9C19.5 2.86566 19.0891 1.87368 18.3577 1.14228C17.6263 0.410892 16.6343 0 15.6 0ZM11.778 6.21C11.778 6.133 11.778 6.103 11.866 6.103H15.025V6.923C15.025 6.923 15.028 6.981 14.976 6.981H11.915C11.778 6.981 11.778 6.981 11.778 6.845V6.21ZM8.853 13.377C7.653 14.03 5.636 13.767 3.247 13.767V5.684H7.059C8.034 5.684 9.194 5.928 9.506 6.961C9.66801 7.41218 9.65815 7.90723 9.4783 8.3516C9.29845 8.79597 8.96121 9.15851 8.531 9.37C8.92755 9.51675 9.27376 9.77403 9.52866 10.1114C9.78355 10.4488 9.93646 10.8521 9.96929 11.2737C10.0021 11.6952 9.91348 12.1174 9.71387 12.4901C9.51427 12.8629 9.21206 13.1706 8.843 13.377H8.853ZM16.117 11.076H12.217C12.11 11.076 12.012 11.134 12.031 11.271C12.148 11.846 12.411 12.451 13.007 12.539C13.3217 12.6327 13.6587 12.6183 13.9643 12.4981C14.2698 12.3779 14.5264 12.1589 14.693 11.876C14.693 11.876 14.742 11.817 14.771 11.817H16.039C16.039 11.817 16.117 11.817 16.097 11.885C15.9633 12.2637 15.7654 12.6165 15.512 12.928C15.1731 13.2517 14.7642 13.493 14.3169 13.6331C13.8697 13.7731 13.3962 13.8083 12.9332 13.7357C12.4702 13.6632 12.0301 13.4849 11.6472 13.2148C11.2642 12.9446 10.9487 12.5898 10.725 12.178C10.5874 11.9034 10.5017 11.6057 10.472 11.3C10.2981 10.5316 10.431 9.72564 10.8425 9.05379C11.254 8.38194 11.9115 7.89727 12.675 7.703C14.888 7.225 16.292 8.746 16.292 10.891C16.2953 10.9161 16.2928 10.9416 16.2846 10.9655C16.2765 10.9894 16.2629 11.0112 16.2451 11.0291C16.2272 11.0469 16.2054 11.0605 16.1815 11.0686C16.1576 11.0768 16.1321 11.0793 16.107 11.076H16.117ZM13.933 8.911C13.6821 8.84139 13.419 8.82706 13.162 8.869C12.905 8.909 12.675 8.958 12.441 9.146C12.207 9.333 12.083 9.649 12.041 9.955C12.041 10.062 12.041 10.082 12.168 10.082H14.528C14.645 10.082 14.645 10.082 14.635 9.935C14.6238 9.75124 14.5747 9.57195 14.489 9.409C14.438 9.28886 14.3607 9.18171 14.2627 9.09551C14.1648 9.0093 14.0487 8.94624 13.923 8.911H13.933Z" fill="white"/>
</svg>
