<svg width="24" height="24" viewBox="0 0 24 24" fill="none" xmlns="http://www.w3.org/2000/svg">
<path d="M18.375 0H5.625C2.5184 0 0 2.5184 0 5.625V18.375C0 21.4816 2.5184 24 5.625 24H18.375C21.4816 24 24 21.4816 24 18.375V5.625C24 2.5184 21.4816 0 18.375 0Z" fill="#111010"/>
<path d="M18.375 0H5.625C2.5184 0 0 2.5184 0 5.625V18.375C0 21.4816 2.5184 24 5.625 24H18.375C21.4816 24 24 21.4816 24 18.375V5.625C24 2.5184 21.4816 0 18.375 0Z" fill="white"/>
<path d="M18.1311 8.98732C18.1402 9.11753 18.1402 9.24773 18.1402 9.37917C18.1402 13.3827 15.0446 18 9.384 18V17.9975C7.71176 17.9999 6.07417 17.5284 4.66675 16.6393C4.91003 16.668 5.15419 16.6826 5.39925 16.683C6.78525 16.6841 8.13139 16.2264 9.22133 15.3835C8.57916 15.3715 7.95684 15.1623 7.44136 14.7851C6.92588 14.4078 6.543 13.8814 6.34625 13.2795C6.80731 13.367 7.28263 13.3492 7.73558 13.2273C6.29991 12.9417 5.267 11.6998 5.267 10.2575V10.2191C5.69498 10.4538 6.17398 10.5838 6.66366 10.5983C5.3115 9.70849 4.89466 7.9374 5.71116 6.55265C6.48372 7.48875 7.44768 8.25435 8.54041 8.7997C9.63313 9.34506 10.8302 9.65796 12.0537 9.71809C11.9318 9.20108 11.9498 8.66159 12.106 8.15359C12.2622 7.64558 12.5512 7.18687 12.944 6.82331C14.1835 5.67617 16.1329 5.73499 17.2981 6.95467C17.9873 6.82071 18.6482 6.57197 19.2523 6.21914C19.0226 6.92067 18.5418 7.51616 17.8995 7.89482C18.5095 7.82399 19.1053 7.66321 19.6667 7.41789C19.2538 8.02685 18.7337 8.55827 18.1311 8.98732Z" fill="#111010"/>
</svg>
